<svg xmlns="http://www.w3.org/2000/svg" width="50" height="30" fill="none" fill-rule="evenodd"><g fill-rule="nonzero"><path d="M46.474 0H3.526C1.582 0 0 1.477 0 3.293v23.414C0 28.523 1.582 30 3.526 30h42.948C48.418 30 50 28.523 50 26.707V3.293C50 1.477 48.418 0 46.474 0z" fill="#fff"/><path d="M14 14.999C14 8.925 18.925 4 25 4s11 4.925 11 11-4.925 11-11 11-11-4.925-11-11.001z" fill="#00586b"/></g><path d="M21.254 17.786h-3.181V10h3.181c2.246 0 4.067 1.743 4.067 3.893s-1.821 3.893-4.067 3.893h0zm.954-3.893c-.001-.531-.435-.969-.989-.998v1.997c.554-.03.987-.468.989-.999h0zm11.097-.162h.825l.87-2.49h-1.695v2.49zm-5.051-2.578c-1.713 0-2.772.816-2.772 2.622v1.479c0 1.772 1.08 2.63 2.772 2.63.955 0 1.638-.261 2.046-.805v.707h2.601v-2.49h-.739v-1.566h.739v-2.49H30.3v.739c-.421-.555-1.101-.827-2.046-.827h0zm.035 2.959v.803c0 .234.198.424.443.424s.443-.19.443-.424v-.803c0-.234-.198-.424-.443-.424s-.443.19-.443.424h0zM18.428 20a.43.43 0 0 0 .305-.116c.081-.077.126-.181.125-.29v-.002c-.005-.224-.196-.404-.431-.403s-.425.181-.428.405v.002a.39.39 0 0 0 .124.289c.081.076.191.118.304.115h0zm.002-.128c-.076 0-.149-.03-.201-.082s-.081-.123-.078-.196v-.002a.26.26 0 0 1 .076-.195c.052-.052.125-.082.2-.082s.149.031.201.084.081.124.078.196v.002c.003.072-.024.142-.077.195s-.124.082-.2.081h0zm1.288.128a.43.43 0 0 0 .298-.106c.015-.013.023-.031.023-.05 0-.025-.016-.048-.04-.058a.07.07 0 0 0-.072.01c-.056.05-.129.077-.205.075s-.146-.032-.197-.084-.078-.122-.074-.194v-.002c-.004-.072.023-.141.074-.194s.122-.083.197-.084.142.025.196.071c.013.009.028.014.044.014s.037-.007.05-.019.021-.03.021-.048-.01-.042-.028-.055c-.08-.06-.179-.092-.281-.089-.113-.002-.222.04-.302.117a.39.39 0 0 0-.121.29v.002c-.003.107.04.211.119.287s.186.119.298.117h0zm.404-.072c0 .017.007.034.019.046s.03.019.048.018c.029.001.056-.017.066-.043l.069-.152h.399l.067.147c.01.029.039.048.07.048.018 0 .036-.007.049-.019s.02-.03.019-.047c0-.01-.003-.02-.008-.028l-.305-.652c-.014-.034-.048-.056-.086-.056h-.006c-.038 0-.073.022-.087.056l-.306.652c-.005.01-.008.02-.009.031h0zm.258-.254l.144-.317.144.317h-.288zm.681.25c0 .038.032.069.072.069s.072-.031.072-.069v-.211h.182l.199.244c.015.023.042.036.07.036.038.001.069-.028.07-.064-.001-.02-.009-.038-.024-.052l-.157-.19c.112-.025.19-.123.186-.234v-.003c.002-.063-.023-.124-.068-.17a.34.34 0 0 0-.237-.079h-.293c-.019 0-.038.007-.052.02s-.021.031-.021.05v.654zm.144-.334v-.263h.21c.107 0 .17.046.17.13v.002c0 .079-.066.131-.169.131h-.211zm.878.334c.001.038.033.067.073.067s.071-.03.073-.067v-.595h.201c.037 0 .067-.029.067-.064s-.03-.064-.067-.064h-.546c-.037 0-.067.029-.067.064s.03.064.067.064h.2v.595zm.384.004c0 .017.007.034.019.046s.03.019.048.019c.03 0 .056-.017.067-.043l.069-.152h.399l.067.147c.011.029.039.048.071.049.018 0 .036-.007.049-.02s.02-.03.019-.047c0-.01-.003-.02-.008-.028l-.306-.652c-.013-.034-.048-.056-.086-.056h-.006c-.038 0-.072.022-.087.056l-.305.652c-.006.01-.009.02-.009.031h0zm.276-.813c.008-.022.03-.036.054-.036.042 0 .104.045.169.045s.095-.037.12-.102c.002-.009.004-.017.005-.026-.002-.021-.021-.037-.044-.036-.016.001-.031.009-.039.023-.014.024-.026.036-.053.036-.043 0-.105-.046-.169-.046s-.096.038-.12.103c-.003.009-.004.017-.005.026.002.021.021.037.043.037.016 0 .031-.009.039-.023h0zm-.018.56l.145-.318.144.318h-.289zm1.038.325a.43.43 0 0 0 .305-.116c.081-.077.126-.181.125-.29v-.002c-.005-.224-.196-.404-.431-.403s-.425.181-.428.406v.002a.39.39 0 0 0 .125.289c.081.076.191.118.304.115h0zm.002-.128c-.076 0-.148-.03-.201-.082s-.081-.123-.078-.196v-.002a.26.26 0 0 1 .077-.195c.052-.052.125-.082.201-.082s.149.031.201.084.081.124.078.196v.002c.003.072-.025.143-.077.195s-.125.082-.2.081h0zm1.299.128c.089.001.177-.025.25-.075l.059.051c.013.013.031.021.05.02a.07.07 0 0 0 .048-.019c.013-.012.02-.029.02-.047s-.009-.041-.026-.054l-.054-.042a.39.39 0 0 0 .084-.241v-.002c-.003-.225-.195-.406-.431-.405s-.426.182-.428.407v.002a.39.39 0 0 0 .124.289c.081.076.19.118.304.115h0zm.042-.247l.102.084a.3.3 0 0 1-.142.035c-.076 0-.149-.03-.201-.082s-.081-.123-.078-.196v-.002a.26.26 0 0 1 .077-.195c.052-.052.125-.082.2-.082s.149.031.201.084.081.124.078.196v.002c.001.052-.013.104-.04.149l-.105-.093c-.013-.013-.032-.02-.05-.02-.038 0-.068.029-.069.066 0 .021.01.041.027.054h0zm.876.246c.215 0 .353-.117.353-.352v-.383c-.001-.037-.033-.067-.072-.067s-.071.03-.072.067v.39c0 .145-.079.218-.206.218s-.209-.077-.209-.223v-.384c-.002-.037-.033-.066-.072-.066s-.07.029-.072.066v.39c0 .228.136.346.349.346h0zm.6-.012h.483c.023.001.046-.011.057-.03s.012-.043 0-.063-.034-.031-.057-.03h-.412v-.212h.353c.035 0 .064-.027.065-.06s-.029-.062-.065-.063h-.353v-.205h.406c.017 0 .034-.006.046-.018s.019-.027.019-.044-.007-.032-.019-.044-.028-.018-.046-.018h-.477c-.019 0-.038.007-.052.02s-.021.031-.021.049v.646c0 .019.007.036.021.049s.032.02.052.02h0zm1.011-.086c0 .023.009.045.026.061s.04.025.064.025h.23c.258 0 .436-.171.436-.393v-.002c0-.221-.178-.391-.436-.391h-.23c-.024 0-.047.009-.064.025s-.026.038-.026.061v.613zm.18-.069v-.474h.14c.067-.003.132.021.179.066a.22.22 0 0 1 .069.171v.002a.22.22 0 0 1-.069.17.24.24 0 0 1-.179.065h-.14zm.621.082c0 .021.008.042.024.057s.037.024.059.023c.037 0 .07-.021.083-.054l.057-.129h.361l.055.124c.013.035.048.059.087.059.023 0 .045-.009.061-.024s.025-.037.024-.058c0-.012-.003-.024-.009-.035l-.287-.619a.11.11 0 0 0-.104-.069h-.01c-.047 0-.088.027-.105.069l-.286.619c-.006.011-.009.024-.01.036h0zm.291-.255l.114-.259.114.259h-.228zm.11-.523c.038.003.075-.011.102-.037l.073-.065c.013-.009.022-.024.023-.04 0-.026-.056-.052-.1-.052-.028 0-.054.015-.067.039l-.064.096c-.007.009-.011.019-.012.031.001.018.019.029.046.029h0zm1.066.79c.001.038.033.068.073.068s.072-.03.073-.068v-.595h.201c.037 0 .067-.029.067-.064s-.03-.064-.067-.064h-.546c-.037 0-.067.029-.067.064s.03.064.067.064h.2v.595zm.871.075c.214 0 .353-.117.353-.352v-.383c-.001-.037-.033-.067-.072-.067s-.071.03-.072.067v.39c0 .145-.078.218-.207.218s-.208-.077-.208-.223v-.384c-.001-.037-.033-.067-.072-.067s-.071.03-.072.067v.39c0 .228.136.346.35.346h0zm.527-.082c0 .019.007.037.021.05s.033.02.052.02h.233c.258 0 .437-.171.437-.393v-.002c0-.221-.179-.391-.437-.391h-.233c-.019 0-.038.007-.052.02s-.021.031-.021.05v.646zm.144-.056v-.534h.162c.076-.004.15.022.204.073s.084.121.081.194v.002c.003.072-.027.143-.081.193s-.129.077-.204.072h-.162zm1.141.139a.43.43 0 0 0 .305-.116c.081-.077.126-.181.125-.29v-.002c-.005-.224-.196-.403-.43-.403s-.425.181-.428.405v.002a.39.39 0 0 0 .125.289c.081.076.191.118.304.114h0zm.002-.128c-.076 0-.149-.03-.201-.082s-.081-.123-.078-.196v-.002a.26.26 0 0 1 .077-.196c.052-.052.125-.082.201-.082s.149.031.201.084.08.124.077.196v.002c.004.072-.024.142-.076.195s-.124.082-.2.081h0z" fill="#fff"/></svg>
