<svg xmlns="http://www.w3.org/2000/svg" width="50" height="30" fill="none"><rect width="50" height="30" rx="4" fill="#fff"/><path d="M27.975 9.654h-5.949v10.69h5.949V9.654z" fill="#ff5f00"/><path d="M22.404 14.999c-.001-1.029.232-2.046.682-2.972A6.79 6.79 0 0 1 25 9.654a6.8 6.8 0 0 0-7.173-.77A6.8 6.8 0 0 0 14 14.999a6.8 6.8 0 0 0 3.827 6.115 6.8 6.8 0 0 0 7.173-.77c-.81-.636-1.465-1.447-1.915-2.373s-.683-1.942-.682-2.972h0z" fill="#eb001b"/><g fill="#f79e1b"><path d="M36 14.999a6.8 6.8 0 0 1-3.827 6.115 6.8 6.8 0 0 1-7.173-.77 6.8 6.8 0 0 0 2.597-5.345A6.8 6.8 0 0 0 25 9.654a6.8 6.8 0 0 1 7.173-.77A6.8 6.8 0 0 1 36 14.999h0z"/><path d="M35.351 19.212v-.219h.088v-.045h-.225v.045h.088v.219h.048zm.436 0v-.264h-.069l-.079.181-.079-.181h-.069v.264h.049v-.199l.074.172h.05l.074-.172v.199h.049z"/></g></svg>