<svg xmlns="http://www.w3.org/2000/svg" width="50" height="30" viewBox="0 0 50 30"><g fill="none" fill-rule="evenodd"><path fill="#FFF" fill-rule="nonzero" d="M46.474 0H3.526C1.582 0 0 1.477 0 3.293v23.414C0 28.523 1.582 30 3.526 30h42.948C48.418 30 50 28.523 50 26.707V3.293C50 1.477 48.418 0 46.474 0z"/><path fill="#2A6BAE" d="M23.998 21.13h6.534c1.492 0 1.507-1.585 1.355-2.368-.083-.526-.977-.522-1.075 0v.61a.51.51 0 0 1-.508.508H17.777a.51.51 0 0 1-.508-.507v-.611c-.098-.522-.992-.526-1.075 0-.152.783-.137 2.369 1.355 2.369h6.449zM19.38 5.943H29.454c.708 0 1.287.613 1.287 1.362v.65a.626.626 0 0 1-1.247.007v-.356a.412.412 0 0 0-.411-.41H18.987a.412.412 0 0 0-.41.41v.349c0 .915-1.189.908-1.189.02v-.67c0-.75.58-1.362 1.287-1.362h.704z"/><path fill="#424041" d="M30.487 13.424c.697.328 1.179 1.006 1.179 1.784 0 1.097-.958 1.994-2.128 1.994h-3.281c-.307 0-.558-.235-.558-.523v-6.242a.55.55 0 0 1 .548-.548h2.733c1.15 0 2.091.94 2.091 2.09 0 .56-.223 1.069-.584 1.445m-2.45-.509h1.042v-.011a.994.994 0 0 0 .841-.98.994.994 0 0 0-.99-.99H26.83v5.18h2.661c.563 0 1.023-.46 1.023-1.023s-.46-1.023-1.023-1.023h-.413v-.002h-1.041a.577.577 0 0 1-.575-.575c0-.317.258-.576.575-.576"/><path fill="#424041" fill-rule="nonzero" d="M19.795 23.047a.176.176 0 0 1 .352 0v.952a.788.788 0 0 1-.79.79.788.788 0 0 1-.79-.79v-.952a.176.176 0 0 1 .351 0v.952a.438.438 0 0 0 .438.439h.001c.12 0 .23-.05.31-.13.08-.08.129-.189.129-.31v-.951zm1.663 1.39a.176.176 0 0 1 0 .352h-.486a.66.66 0 0 1-.66-.661h-.001v-1.08a.176.176 0 1 1 .352 0v1.08h-.001a.31.31 0 0 0 .092.219.31.31 0 0 0 .218.09h.486zm3.72-7.859a.658.658 0 1 1-1.31.14l-.54-4.965-1.91 4.854-.002.005-.006.013-.004.01-.001.003-.005.01-.002.006-.005.01-.002.004-.005.01-.002.003a.655.655 0 0 1-.134.174l-.001.002-.01.009a.651.651 0 0 1-.114.08l-.003.002-.012.007h-.001l-.012.006-.005.003-.007.003-.008.004-.007.003-.008.004-.007.003-.007.003-.006.002-.004.001-.005.002-.009.004-.005.001a.656.656 0 0 1-.193.037h-.048a.656.656 0 0 1-.215-.045l-.01-.004h-.001l-.01-.004-.008-.004-.007-.003-.007-.003-.008-.004-.005-.003-.012-.006-.011-.006-.006-.003a.656.656 0 0 1-.1-.07l-.003-.002-.022-.02a.636.636 0 0 1-.017-.016l-.015-.016a.624.624 0 0 1-.02-.022l-.002-.003a.656.656 0 0 1-.07-.1l-.003-.006-.006-.01v-.002l-.007-.012-.002-.004-.004-.008-.003-.008-.003-.006-.004-.009-.004-.009v-.002l-.004-.009-1.913-4.859-.54 4.965a.658.658 0 1 1-1.309-.14l.636-5.852v-.004a1.091 1.091 0 0 1 .123-.394 1.09 1.09 0 0 1 .818-.568h.001a1.1 1.1 0 0 1 .202-.009h.003a1.081 1.081 0 0 1 .964.688l1.628 4.136 1.628-4.136a1.081 1.081 0 0 1 .965-.688h.002a1.104 1.104 0 0 1 .202.009h.001a1.091 1.091 0 0 1 .941.962v.004l.636 5.852zM18.5 24.593a.176.176 0 0 1-.35.04l-.15-1.266-.538 1.246a.176.176 0 0 1-.323 0l-.537-1.246-.151 1.267a.176.176 0 0 1-.35-.041l.176-1.472a.282.282 0 0 1 .201-.238.31.31 0 0 1 .052-.011h.003a.304.304 0 0 1 .282.119.291.291 0 0 1 .03.052l.456 1.057.456-1.057a.29.29 0 0 1 .257-.174h.04l.013.002h.002a.296.296 0 0 1 .219.141.28.28 0 0 1 .037.108v.001l.175 1.472zm3.726.02a.176.176 0 0 1-.352 0v-1.39h-.5a.176.176 0 0 1 0-.352h1.352a.176.176 0 0 1 0 .352h-.5v1.39zm1.709 0c0 .097-.203.176-.453.176s-.453-.079-.453-.176v-1.566c0-.097.203-.176.453-.176s.453.079.453.176v1.566zm2.997-.021a.176.176 0 0 1-.349.042l-.062-.496h-.61a.176.176 0 0 1 0-.352h.567l-.016-.13-.002-.013a.648.648 0 0 0-.056-.183.398.398 0 0 0-.356-.237h-.002a.375.375 0 0 0-.167.04.493.493 0 0 0-.245.391l-.11.978a.176.176 0 0 1-.349-.038l.11-.978a.844.844 0 0 1 .435-.667.705.705 0 0 1 .326-.077h.002c.305 0 .542.177.67.431a.926.926 0 0 1 .093.31l.121.979zm.54.021a.176.176 0 0 1-.353 0v-1.455c0-.01 0-.02.003-.03a.246.246 0 0 1 .013-.057.248.248 0 0 1 .195-.158h.002v-.001a.258.258 0 0 1 .042-.002h.004c.072.003.14.036.186.095l.937 1.194v-1.152a.176.176 0 0 1 .352 0v1.448a.247.247 0 0 1-.15.228h-.002v.001a.13.13 0 0 1-.015.006h-.002a.246.246 0 0 1-.268-.072l-.006-.006-.003-.004-.936-1.194v1.16zm2.747-.176a.176.176 0 0 1 0 .352h-.518a.692.692 0 0 1-.694-.694v-.53a.693.693 0 0 1 .693-.693v-.001h.52a.176.176 0 0 1 0 .352h-.52a.342.342 0 0 0-.342.342v.53c0 .094.038.18.101.242.062.062.148.1.241.1h.52zm1.018-1.215v.001a.48.48 0 0 0-.333.132.431.431 0 0 0-.136.311v.328c0 .12.052.23.135.31a.48.48 0 0 0 .667 0 .43.43 0 0 0 .136-.31v-.328c0-.12-.052-.23-.135-.31a.48.48 0 0 0-.334-.134m0-.351c.225 0 .429.09.577.231a.78.78 0 0 1 .243.564v.328a.78.78 0 0 1-.243.564.832.832 0 0 1-.577.23v.001a.831.831 0 0 1-.577-.231.78.78 0 0 1-.243-.564v-.328c0-.22.093-.42.243-.564a.831.831 0 0 1 .577-.23v-.001z"/><path fill="#424041" fill-rule="nonzero" d="M23.824 23.223v1.214h.68a.22.22 0 0 0 .156-.065.22.22 0 0 0 .006-.306l-.007-.006a.22.22 0 0 0-.155-.066v.001H24.268a.176.176 0 0 1 0-.352h.08a.211.211 0 0 0 .133-.062.21.21 0 0 0 .062-.148.21.21 0 0 0-.062-.149.21.21 0 0 0-.148-.062v.001h-.51zm-.352.596v-.764a.181.181 0 0 1 .055-.13l.002-.003a.181.181 0 0 1 .116-.05h.01v-.001h.679a.56.56 0 0 1 .56.562h.002-.001c0 .11-.032.212-.087.299.037.023.07.05.1.08l.011.011a.571.571 0 0 1-.415.965v.001h-.856a.176.176 0 0 1-.176-.176v-.794z"/></g></svg>
