<svg xmlns="http://www.w3.org/2000/svg" width="50" height="30" viewBox="0 0 50 30"><defs><linearGradient id="a" x1=".028%" x2="100.101%" y1="50.001%" y2="50.001%"><stop offset="0%" stop-color="#8FC5EC"/><stop offset="100%" stop-color="#0087CA"/></linearGradient><linearGradient id="b" x1="55.998%" x2="44.826%" y1="99.946%" y2="-1.34%"><stop offset="0%" stop-color="#003A5B"/><stop offset="9%" stop-color="#144C75"/><stop offset="22%" stop-color="#285E8F"/><stop offset="35%" stop-color="#376CA3"/><stop offset="51%" stop-color="#4376B1"/><stop offset="69%" stop-color="#497CB9"/><stop offset="100%" stop-color="#4B7EBC"/></linearGradient><linearGradient id="c" x1="54.526%" x2="46.173%" y1="97.159%" y2="4.35%"><stop offset="0%" stop-color="#30327B"/><stop offset="18%" stop-color="#424287"/><stop offset="46%" stop-color="#565496"/><stop offset="74%" stop-color="#635E9E"/><stop offset="100%" stop-color="#6762A1"/></linearGradient><linearGradient id="d" x1="9.857%" x2="98.714%" y1="61.877%" y2="32.93%"><stop offset="0%" stop-color="#66127D"/><stop offset="15%" stop-color="#6A1B81"/><stop offset="40%" stop-color="#75338E"/><stop offset="70%" stop-color="#875BA1"/><stop offset="100%" stop-color="#9B87B7"/></linearGradient><linearGradient id="e" x1="0%" y1="50.09%" y2="50.09%"><stop offset="0%" stop-color="#B1007E"/><stop offset="100%" stop-color="#D388B4"/></linearGradient><linearGradient id="f" x1="99.927%" x2=".022%" y1="49.746%" y2="49.746%"><stop offset="0%" stop-color="#5EA255"/><stop offset="100%" stop-color="#ABC56E"/></linearGradient><linearGradient id="g" x1="49.764%" x2="49.764%" y1="99.353%" y2="2.79%"><stop offset="0%" stop-color="#F5DB5D"/><stop offset="4%" stop-color="#F3D654"/><stop offset="20%" stop-color="#EDC636"/><stop offset="38%" stop-color="#E8B91E"/><stop offset="56%" stop-color="#E5B00D"/><stop offset="75%" stop-color="#E3AB03"/><stop offset="100%" stop-color="#E2A900"/></linearGradient><linearGradient id="h" x1="11.831%" x2="93.853%" y1="14.258%" y2="86.37%"><stop offset="0%" stop-color="#CE6B01"/><stop offset="29%" stop-color="#CF6E04"/><stop offset="49%" stop-color="#D2760D"/><stop offset="66%" stop-color="#D6851C"/><stop offset="81%" stop-color="#DD9A31"/><stop offset="96%" stop-color="#E6B54D"/><stop offset="100%" stop-color="#E9BF57"/></linearGradient></defs><g fill="none"><path fill="#FFF" d="M46.474 0H3.526C1.582 0 0 1.477 0 3.293v23.414C0 28.523 1.582 30 3.526 30h42.948C48.418 30 50 28.523 50 26.707V3.293C50 1.477 48.418 0 46.474 0z"/><path fill="url(#a)" d="M12.262 7.653a.495.495 0 0 1 .5-.533.72.72 0 0 1 .65.726.509.509 0 0 1-.487.55.718.718 0 0 1-.663-.743zm1.925.902c0 .729.52 1.1.85 1.1.33 0 .616-.275.616-.759s-.377-1.083-.844-1.083c-.468 0-.616.473-.616.742h-.006zm2.101 1.298c0 .762.482 1.276.853 1.276.253 0 .566-.236.566-.871 0-.685-.429-1.34-.85-1.34-.175 0-.563.157-.563.935h-.006z" transform="translate(15 4)"/><path fill="url(#b)" d="M12.554 13.2c0-.591.484-1.317 1.18-1.317.643 0 .976.608.976 1.1 0 .69-.517 1.328-1.194 1.328-.575-.011-.962-.514-.962-1.111zm-.135-2.068a.896.896 0 0 0 .864-.957.965.965 0 0 0-.908-.995.907.907 0 0 0-.866.962c-.012.52.39.956.91.987v.003z" transform="translate(15 4)"/><path fill="url(#c)" d="M6.947 14.93a1.196 1.196 0 0 0 1.248 1.185 1.32 1.32 0 0 0 1.375-1.29 1.213 1.213 0 0 0-1.221-1.18 1.314 1.314 0 0 0-1.402 1.285zm2.442-2.2c.55-.01.991-.459.99-1.01a.949.949 0 0 0-.955-.965.99.99 0 0 0-.984.976.957.957 0 0 0 .949 1.01v-.011zm.825-2.89a.613.613 0 0 0 .604-.639.671.671 0 0 0-.643-.676.613.613 0 0 0-.63.616.682.682 0 0 0 .674.71l-.005-.012z" transform="translate(15 4)"/><path fill="url(#d)" d="M4.7 11.33a1.298 1.298 0 0 1-1.265-1.276A1.21 1.21 0 0 1 4.71 8.86c.696.017 1.255.58 1.265 1.277A1.213 1.213 0 0 1 4.7 11.33zm6.107-3.696a.55.55 0 0 0 .55-.564c0-.386-.31-.7-.695-.707a.55.55 0 0 0-.55.567.693.693 0 0 0 .695.704zM7.752 9.589a.946.946 0 0 0 .668-1.635.979.979 0 0 0-.7-.279.949.949 0 0 0-.982.883 1.02 1.02 0 0 0 1.014 1.031z" transform="translate(15 4)"/><path fill="url(#e)" d="M2.8 6.372c-.625.055-1.13-.344-1.13-.891a1.193 1.193 0 0 1 1.127-1.1c.621-.055 1.127.343 1.127.89a1.19 1.19 0 0 1-1.124 1.1zm5.747.594a.594.594 0 0 0 .608-.583.674.674 0 0 0-.674-.644.597.597 0 0 0-.633.586c.02.368.33.653.699.64zm-2.64-.314a.919.919 0 0 0 .968-.877.9.9 0 0 0-.949-.825c-.517 0-1.014.346-1.014.844s.475.858.995.858z" transform="translate(15 4)"/><path fill="url(#f)" d="M12.554 5.41a.583.583 0 0 1 .605-.614 1.213 1.213 0 0 1 1.05 1.152.578.578 0 0 1-.585.6 1.158 1.158 0 0 1-1.07-1.139zm3.3.55a.412.412 0 0 0 .431-.46c0-.742-.841-1.667-1.421-1.667-.204 0-.418.135-.418.495 0 .622.731 1.631 1.413 1.631h-.005z" transform="translate(15 4)"/><path fill="url(#g)" d="M10.524 4.851a.473.473 0 0 1 .504-.47c.39.006.71.311.734.701a.451.451 0 0 1-.487.451.745.745 0 0 1-.75-.682zm1.18-1.169c.366 0 .597-.209.597-.481 0-.6-.72-1.001-1.158-1.001-.534 0-.633.325-.633.484 0 .547.658.998 1.194.998zM10.277.564c0 .492 1.006 1.135 1.782 1.135.12 0 .55-.019.55-.34C12.6.825 11.564.212 10.835.212c-.336 0-.558.102-.558.352z" transform="translate(15 4)"/><path fill="url(#h)" d="M7.804 4.084c0-.314.292-.701.886-.701.484 0 1.045.357 1.045.902a.784.784 0 0 1-.852.712c-.55 0-1.078-.39-1.078-.913zM6.77 3.025c.55 0 1.15-.302 1.15-.858 0-.555-.69-.825-1.114-.825-.825 0-1.232.503-1.232.85 0 .47.583.833 1.197.833z" transform="translate(15 4)"/><path fill="#211915" d="M20.923 22.983h1v2.67h-1zM21.21 21.773a.363.363 0 0 0-.369.35.369.369 0 0 0 .734 0 .363.363 0 0 0-.366-.35z"/><path fill="#211915" d="M23.217 25.172l-.726-2.189h-.611l.982 2.671h.679l.99-2.671h-.591zM25.884 22.923c-.783 0-1.33.583-1.33 1.419 0 .836.566 1.383 1.446 1.383.335.012.666-.07.957-.237v-.464a1.65 1.65 0 0 1-.9.233.897.897 0 0 1-.915-.668h1.925v-.415c-.006-.781-.435-1.251-1.183-1.251zm-.761 1.169v-.034a.745.745 0 0 1 .734-.676.616.616 0 0 1 .666.693v.027l-1.4-.01zm5.164-.017c-.343-.09-.464-.192-.464-.382s.17-.333.445-.333c.273.005.538.093.759.253v-.495a1.468 1.468 0 0 0-.778-.198c-.61 0-.976.297-.976.797 0 .452.228.677.808.806.275.072.55.201.55.418 0 .218-.173.333-.49.333a1.52 1.52 0 0 1-.824-.275v.514c.255.142.543.215.835.212.658 0 1.032-.294 1.032-.803 0-.473-.25-.707-.897-.847zm2.511-1.152a1.397 1.397 0 1 0 1.424 1.4 1.348 1.348 0 0 0-1.424-1.4zm0 2.324a.844.844 0 0 1-.825-.924c0-.55.336-.93.825-.93a.932.932 0 0 1 0 1.854zm-15.892-.561c0 .37-.21.577-.635.577-.427 0-.633-.206-.633-.578v-1.71h-.57v1.746c0 .65.35.968 1.134.985h.137c.787-.02 1.136-.336 1.136-.985v-1.746h-.57v1.71zm2.557-1.76a1.248 1.248 0 0 0-.907.352v-.303h-.57v2.67h.57v-1.52c.005-.4.32-.728.72-.748.427 0 .55.203.55.577v1.7h.57V23.91c-.003-.66-.281-.985-.933-.985zm8.564.346v-.297h-.575v2.67h.575v-1.438a.8.8 0 0 1 .998-.745v-.534h-.107a1.248 1.248 0 0 0-.891.344zM34.883 25.662v-.55h-.209v-.074h.497v.074h-.206v.55zM35.256 25.043h.152l.173.509.179-.509h.14v.619h-.083v-.55l-.203.55h-.082l-.193-.55v.55h-.083z"/></g></svg>
