<svg xmlns="http://www.w3.org/2000/svg" width="50" height="30" fill="none"><rect width="50" height="30" rx="4" fill="#fff"/><path d="M24.849 10.344l-2.071 9.507h-2.505l2.072-9.507h2.504zm10.539 6.138l1.318-3.57.759 3.57h-2.077zm2.795 3.369H40.5l-2.022-9.507h-2.138a1.14 1.14 0 0 0-1.066.697l-3.759 8.81h2.63l.522-1.42h3.214l.302 1.42zm-6.538-3.104c.011-2.509-3.534-2.647-3.51-3.768.008-.341.338-.704 1.062-.796.359-.046 1.348-.081 2.47.425l.44-2.016c-.603-.215-1.378-.421-2.343-.421-2.476 0-4.218 1.292-4.233 3.143-.016 1.369 1.244 2.132 2.193 2.587.976.466 1.304.765 1.3 1.182-.007.638-.779.919-1.5.93-1.259.019-1.99-.334-2.572-.6l-.454 2.083c.585.264 1.665.494 2.786.505 2.632 0 4.353-1.276 4.361-3.253M21.27 10.344l-4.059 9.507h-2.648l-1.997-7.587c-.121-.467-.227-.639-.595-.835-.602-.321-1.596-.622-2.471-.808l.059-.276h4.262a1.16 1.16 0 0 1 1.155.969l1.055 5.501 2.607-6.471h2.631z" fill="#1434cb"/></svg>