<svg xmlns="http://www.w3.org/2000/svg" version="1.1" xmlns:xlink="http://www.w3.org/1999/xlink" xmlns:svgjs="http://svgjs.dev/svgjs" width="1000" height="1000" viewBox="0 0 1000 1000"><rect width="1000" height="1000" fill="#ffffff"></rect><g transform="matrix(0.7,0,0,0.7,149.57578026587635,454.5051947157732)"><svg viewBox="0 0 396 52" data-background-color="#ffffff" preserveAspectRatio="xMidYMid meet" height="131" width="1000" xmlns="http://www.w3.org/2000/svg" xmlns:xlink="http://www.w3.org/1999/xlink"><defs></defs><g id="tight-bounds" transform="matrix(1,0,0,1,0.24001283612437874,-0.201419031845262)"><svg viewBox="0 0 395.52 52.40283806369052" height="52.40283806369052" width="395.52"><g><svg viewBox="0 0 474.60909691985216 62.88143115252177" height="52.40283806369052" width="395.52"><g><rect width="5.209017152310603" height="62.88143115252177" x="60.24390921175464" y="0" fill="#1ebbd7" opacity="1" stroke-width="0" stroke="transparent" fill-opacity="1" class="rect-o-0" data-fill-palette-color="primary" rx="1%" id="o-0" data-palette-color="#1ebbd7"></rect></g><g transform="matrix(1,0,0,1,79.08909691985217,0.1564214705286595)"><svg viewBox="0 0 395.52 62.56858821146445" height="62.56858821146445" width="395.52"><g><svg viewBox="0 0 395.52 62.56858821146445" height="62.56858821146445" width="395.52"><g><svg viewBox="0 0 395.52 62.56858821146445" height="62.56858821146445" width="395.52"><g transform="matrix(1,0,0,1,0,0)"><svg width="395.52" viewBox="0.2999992370605469 -35.54999923706055 246.85003662109375 36.04999923706055" height="62.56858821146445" data-palette-color="#1ebbd7"><svg></svg><g class="undefined-text-0" data-fill-palette-color="primary" id="text-0"><path d="M18.05-0.95h3.55l-3.65-10.8h-9.9l-3.85 10.8h3.75v0.95h-7.65v-0.95h2.35l12.75-34.35h4.1l12.6 34.35h2.3v0.95h-16.35zM17.55-12.85l-4.35-13.1-4.7 13.1zM51.7-0.5v0c1.633 0 2.677-0.3 3.13-0.9 0.447-0.6 0.67-1.617 0.67-3.05v0-9.7h-3.2v-1.1h14.4v1.1h-1.95v14.1h-0.75c-0.6-0.833-1.45-1.25-2.55-1.25v0c-0.467 0-1.857 0.3-4.17 0.9-2.32 0.6-4.297 0.9-5.93 0.9v0c-5.433 0-9.64-1.467-12.62-4.4-2.987-2.933-4.48-7.343-4.48-13.23 0-5.88 1.56-10.42 4.68-13.62 3.113-3.2 7.303-4.8 12.57-4.8v0c2.033 0 4.077 0.26 6.13 0.78 2.047 0.513 3.237 0.77 3.57 0.77 0.333 0 0.583-0.077 0.75-0.23 0.167-0.147 0.35-0.403 0.55-0.77v0h0.55l0.4 10.85h-0.9c-1.633-3.233-3.273-5.777-4.92-7.63-1.653-1.847-3.497-2.77-5.53-2.77v0c-5.1 0-7.65 4.983-7.65 14.95v0 3.95c0 5 0.627 8.773 1.88 11.32 1.247 2.553 3.037 3.83 5.37 3.83zM80.9-10.65c0 3.067 0.523 5.417 1.57 7.05 1.053 1.633 2.947 2.45 5.68 2.45 2.733 0 4.833-0.85 6.3-2.55 1.467-1.7 2.2-4.283 2.2-7.75v0-22.6h-3.25v-0.95h7.3v0.95h-2.75v22.25c0 4.133-0.917 7.217-2.75 9.25-1.833 2.033-5.077 3.05-9.73 3.05-4.647 0-8.197-0.967-10.65-2.9-2.447-1.933-3.67-5.25-3.67-9.95v0-21.7h-2.75v-0.95h15.75v0.95h-3.25zM116.8-0.95h3.55l-3.65-10.8h-9.9l-3.85 10.8h3.75v0.95h-7.65v-0.95h2.35l12.75-34.35h4.1l12.6 34.35h2.3v0.95h-16.35zM116.3-12.85l-4.35-13.1-4.7 13.1zM139.35-34.05l8.4 25 8.7-25h-3.9v-0.95h7.65v0.95h-2.35l-12.05 34.55h-4.2l-12.75-34.55h-2.3v-0.95h16.35v0.95zM161.75-34.05v-0.95h15.25v0.95h-2.75v33.1h2.75v0.95h-15.25v-0.95h2.75v-33.1zM213.95-18.1v0c0 6.867-1.933 11.65-5.8 14.35v0c-3.567 2.5-8.467 3.75-14.7 3.75v0h-14.15v-0.95h3.3v-33.1h-3.3v-0.95h15.45c6.4 0 11.2 1.307 14.4 3.92 3.2 2.62 4.8 6.947 4.8 12.98zM192.35-34.05v33.1h1.9c3.367 0 5.773-1.193 7.22-3.58 1.453-2.38 2.18-6.37 2.18-11.97v0-2.9c0-7.5-1.433-12.017-4.3-13.55v0c-1.367-0.733-3.3-1.1-5.8-1.1v0zM230.8-0.95h3.55l-3.65-10.8h-9.9l-3.85 10.8h3.75v0.95h-7.65v-0.95h2.35l12.75-34.35h4.1l12.6 34.35h2.3v0.95h-16.35zM230.3-12.85l-4.35-13.1-4.7 13.1z" data-fill-palette-color="primary" fill="#1ebbd7" opacity="1"></path></g></svg></g></svg></g></svg></g></svg></g><g transform="matrix(1,0,0,1,0,0.1564214705286595)"><svg viewBox="0 0 46.60773865596772 62.56858821146445" height="62.56858821146445" width="46.60773865596772"><g><svg xmlns:dc="http://purl.org/dc/elements/1.1/" xmlns:cc="http://creativecommons.org/ns#" xmlns:rdf="http://www.w3.org/1999/02/22-rdf-syntax-ns#" xmlns:svg="http://www.w3.org/2000/svg" xmlns="http://www.w3.org/2000/svg" xmlns:sodipodi="http://sodipodi.sourceforge.net/DTD/sodipodi-0.dtd" xmlns:inkscape="http://www.inkscape.org/namespaces/inkscape" preserveAspectRatio="xMidYMid" viewBox="0.008211970329284668 0 46.929100036621094 63" version="1.1" x="0" y="0" height="62.56858821146445" width="46.60773865596772" class="icon-icon-0" data-fill-palette-color="accent" id="icon-0"><path d="M22.938 0C22.534 0.004 22.123 0.177 21.844 0.469 21.07 1.278 2.872 20.473 0.438 37.875-0.733 46.233 0.483 52.34 4.156 56.563 7.916 60.886 14.06 63 22.938 63 31.941 63 38.504 60.765 42.438 56.344 46.172 52.147 47.597 45.933 46.656 37.906 44.714 21.355 24.844 1.284 24 0.438 23.714 0.151 23.377 0.004 22.938 0zM22.969 3.688C27.16 8.145 42.085 24.849 43.656 38.25 44.494 45.39 43.328 50.814 40.188 54.344 36.849 58.098 31.047 60 22.938 60 14.98 60 9.562 58.224 6.406 54.594 3.337 51.066 2.364 45.728 3.406 38.281 5.381 24.168 19.033 8.079 22.969 3.688zM22.594 11.781C22.211 11.806 21.835 11.97 21.563 12.281 21.073 12.838 9.586 26.102 7.375 42.969 7.267 43.79 7.835 44.548 8.656 44.656 8.722 44.665 8.81 44.656 8.875 44.656 9.616 44.656 10.246 44.131 10.344 43.375 12.434 27.432 23.698 14.38 23.813 14.25 24.358 13.627 24.279 12.701 23.656 12.156 23.345 11.884 22.977 11.756 22.594 11.781zM34.813 26.125C34.62 26.122 34.439 26.143 34.25 26.219 33.494 26.52 33.094 27.361 33.375 28.125 33.415 28.281 33.989 30.769 30.75 36.844 29.691 38.83 28.32 40.995 26.688 43.313 26.015 44.282 24.75 46.575 24.75 48.25 24.75 51.681 28.092 54.469 32.219 54.469 35.513 54.469 38.401 52.728 39.375 50.125 40.22 47.883 40.531 46.095 40.531 43.531 40.531 38.937 36.66 28.319 36.219 27.125 36.215 27.116 36.191 27.104 36.188 27.094 36.178 27.07 36.194 27.047 36.188 27.031 35.948 26.468 35.389 26.134 34.813 26.125zM35.344 33.938C36.474 37.544 37.531 41.475 37.531 43.531 37.531 45.752 37.285 47.144 36.563 49.063 36.031 50.48 34.237 51.469 32.219 51.469 29.788 51.469 27.75 49.997 27.75 48.25 27.75 47.631 28.427 46.085 29.156 45.031 30.853 42.624 32.258 40.346 33.375 38.25 34.251 36.608 34.886 35.182 35.344 33.938z" fill="#1ebbd7" fill-rule="evenodd" data-fill-palette-color="accent"></path></svg></g></svg></g></svg></g></svg><rect width="395.52" height="52.40283806369052" fill="none" stroke="none" visibility="hidden"></rect></g></svg></g></svg>