<?xml version="1.0" standalone="no"?>
<!DOCTYPE svg PUBLIC "-//W3C//DTD SVG 20010904//EN"
 "http://www.w3.org/TR/2001/REC-SVG-20010904/DTD/svg10.dtd">
<svg version="1.0" xmlns="http://www.w3.org/2000/svg"
 width="1080.000000pt" height="1080.000000pt" viewBox="0 0 1080.000000 1080.000000"
 preserveAspectRatio="xMidYMid meet">
<metadata>
Created by potrace 1.14, written by Peter Selinger 2001-2017
</metadata>
<g transform="translate(0.000000,1080.000000) scale(0.100000,-0.100000)"
fill="#000000" stroke="none">
<path d="M2899 6261 c16 -10 3 -20 -22 -15 -12 1 -17 -2 -13 -11 3 -9 0 -12
-10 -8 -7 3 -14 0 -14 -6 0 -6 -7 -11 -16 -11 -8 0 -12 -4 -9 -10 3 -5 -1 -10
-10 -10 -9 0 -13 -4 -10 -10 3 -5 1 -10 -4 -10 -6 0 -11 -7 -11 -15 0 -9 -6
-12 -15 -8 -9 3 -15 2 -14 -3 4 -23 -2 -45 -11 -39 -5 3 -10 -3 -10 -14 0 -12
-5 -21 -11 -21 -5 0 -8 -4 -5 -9 3 -5 -2 -12 -11 -15 -14 -6 -15 -9 -3 -16 11
-7 11 -11 1 -24 -7 -9 -18 -13 -25 -9 -6 4 -6 0 2 -9 10 -13 10 -19 -2 -31 -8
-8 -12 -17 -9 -21 4 -3 1 -6 -5 -6 -7 0 -12 -9 -12 -20 0 -11 -5 -20 -12 -20
-9 0 -9 -3 -1 -11 14 -14 5 -41 -11 -32 -7 5 -7 2 1 -8 10 -12 9 -20 -3 -37
-12 -17 -12 -22 -2 -22 7 0 5 -5 -6 -11 -15 -9 -16 -13 -5 -20 11 -7 9 -9 -6
-10 -19 0 -19 -1 -1 -8 18 -7 18 -8 0 -26 -21 -21 -30 -121 -12 -142 7 -9 7
-13 -1 -13 -6 0 -11 -5 -11 -11 0 -8 4 -8 14 0 8 7 13 23 11 36 -1 14 2 25 6
25 5 0 8 3 8 8 -4 21 2 32 13 26 7 -5 9 -2 6 8 -4 8 2 20 13 27 11 6 17 16 14
21 -3 6 1 7 10 4 11 -5 14 -2 9 10 -5 12 -2 15 12 9 12 -4 15 -3 10 5 -5 8 -1
10 10 5 10 -4 20 0 26 10 5 10 15 14 25 10 10 -4 14 -2 10 4 -3 5 3 9 16 8 12
-1 28 5 35 12 11 10 17 11 28 2 10 -8 14 -8 14 0 0 6 10 10 23 10 12 0 31 2
42 4 11 2 25 0 32 -5 7 -6 14 -5 19 3 4 7 3 9 -3 6 -6 -4 -13 -1 -16 6 -3 7 4
12 19 12 13 0 24 -4 24 -8 0 -5 7 -2 15 7 8 8 24 13 35 11 11 -2 19 1 17 7 -1
6 6 12 17 13 10 2 24 9 30 16 8 9 8 10 -3 4 -9 -5 -12 -4 -7 3 4 6 14 8 23 5
12 -5 14 -3 8 7 -6 10 -4 12 9 7 14 -5 17 -3 12 8 -3 8 -1 15 5 15 5 0 14 11
19 25 5 14 17 28 25 31 12 5 15 24 15 90 0 81 -3 90 -32 85 -5 0 -8 4 -8 9 0
6 6 10 13 10 8 0 7 3 -3 9 -8 6 -18 7 -22 5 -4 -3 -5 2 -2 10 3 9 1 16 -6 16
-6 0 -8 5 -5 10 3 6 -2 10 -12 10 -10 0 -25 9 -33 20 -8 11 -20 20 -28 20 -7
0 -10 5 -7 10 4 6 -31 10 -97 10 -61 0 -98 -4 -89 -9z m-295 -587 c3 -8 2 -12
-4 -9 -6 3 -10 10 -10 16 0 14 7 11 14 -7z"/>
<path d="M3210 5939 c0 -5 5 -7 10 -4 6 3 10 8 10 11 0 2 -4 4 -10 4 -5 0 -10
-5 -10 -11z"/>
<path d="M2610 5819 c0 -5 5 -7 10 -4 6 3 10 8 10 11 0 2 -4 4 -10 4 -5 0 -10
-5 -10 -11z"/>
<path d="M5375 5793 c4 -10 8 -24 8 -30 0 -7 4 -13 9 -13 4 0 7 -3 7 -7 -1 -5
4 -24 12 -43 7 -19 12 -38 11 -42 -1 -5 3 -8 10 -8 6 0 9 -3 5 -6 -3 -4 0 -19
8 -34 8 -15 11 -30 8 -34 -4 -3 -1 -6 5 -6 7 0 12 -8 12 -17 1 -10 9 -36 20
-58 11 -22 19 -46 20 -53 0 -7 4 -20 10 -30 8 -14 27 -57 35 -82 1 -3 5 -13 9
-22 4 -9 9 -22 10 -30 1 -7 8 -23 14 -35 7 -13 11 -23 8 -23 -3 0 6 -25 20
-55 14 -30 22 -60 18 -66 -4 -7 -3 -9 3 -6 5 3 15 -11 22 -31 57 -166 98 -241
122 -226 5 3 9 0 9 -5 0 -6 8 -11 18 -11 10 0 28 -7 40 -16 12 -8 22 -13 22
-9 0 3 11 -2 24 -10 23 -15 24 -15 21 2 -2 10 -4 19 -5 21 -2 1 -3 5 -4 10 -2
11 -136 352 -153 391 -8 18 -16 39 -17 45 -2 13 -65 176 -99 256 -20 47 -31
83 -29 93 1 4 -3 7 -10 7 -6 0 -8 3 -5 7 4 3 1 16 -7 27 -7 12 -17 36 -21 54
-5 22 -16 37 -33 45 -15 6 -30 16 -34 22 -4 5 -8 6 -8 1 0 -5 -7 -3 -15 4 -8
7 -15 10 -15 6 0 -3 -16 3 -35 14 -44 25 -59 26 -50 3z"/>
<path d="M2835 5760 c-3 -5 -1 -10 4 -10 6 0 11 5 11 10 0 6 -2 10 -4 10 -3 0
-8 -4 -11 -10z"/>
<path d="M2777 5662 c-14 -9 -36 -34 -47 -57 -38 -75 -232 -580 -236 -615 -6
-48 20 -80 72 -86 53 -7 68 7 107 101 l33 80 134 0 133 0 29 -70 c16 -38 38
-80 50 -92 48 -51 138 -12 138 59 0 51 -235 626 -270 662 -35 36 -100 44 -143
18z m106 -320 c20 -59 37 -109 37 -112 0 -8 -148 -5 -156 2 -7 7 66 218 76
218 3 0 22 -48 43 -108z"/>
<path d="M3517 5664 c-169 -39 -264 -163 -273 -356 -7 -157 67 -304 181 -364
117 -61 294 -58 430 6 98 46 107 62 110 176 4 186 -5 195 -190 196 l-128 1
-24 -28 c-18 -21 -23 -35 -18 -54 13 -51 32 -58 163 -60 32 -1 32 -2 32 -50
l0 -48 -62 -21 c-71 -23 -159 -22 -205 1 -73 38 -112 122 -108 232 4 91 9 112
42 159 37 52 90 79 157 79 68 0 105 -21 150 -82 52 -73 118 -82 155 -20 40 65
-21 165 -130 214 -73 33 -188 40 -282 19z"/>
<path d="M4149 5666 c-45 -22 -49 -44 -45 -311 3 -212 6 -256 21 -290 48 -109
122 -155 265 -163 196 -11 310 58 341 206 13 64 17 473 4 511 -19 61 -108 79
-147 30 -22 -26 -20 -4 -22 -280 -2 -205 -4 -228 -22 -260 -25 -42 -65 -63
-122 -62 -56 1 -97 19 -119 52 -16 23 -19 57 -23 278 -5 244 -6 253 -27 275
-26 25 -70 31 -104 14z"/>
<path d="M5080 5658 c-32 -21 -44 -45 -126 -253 -50 -127 -96 -241 -102 -255
-6 -14 -17 -41 -23 -60 -7 -19 -16 -40 -20 -46 -5 -6 -10 -30 -11 -54 -1 -36
3 -47 26 -67 17 -14 40 -23 61 -23 42 0 72 37 100 123 11 31 22 58 25 58 33 7
263 2 270 -6 5 -6 18 -36 30 -67 31 -84 54 -108 100 -108 61 0 96 45 82 107
-7 30 -128 339 -187 478 -7 17 -18 46 -25 65 -20 54 -49 99 -73 112 -42 22
-90 21 -127 -4z m143 -428 c-5 -5 -163 -7 -163 -1 0 2 19 55 42 118 l41 114
42 -113 c23 -62 40 -115 38 -118z"/>
<path d="M5885 5671 c-58 -25 -62 -73 -16 -198 18 -48 44 -119 58 -158 14 -38
29 -79 34 -90 5 -11 25 -65 44 -120 55 -152 55 -151 80 -175 16 -15 41 -24 73
-28 84 -8 97 11 206 303 133 359 138 375 131 411 -11 61 -112 83 -144 31 -8
-12 -50 -127 -93 -256 -43 -128 -81 -238 -85 -244 -3 -6 -44 102 -90 239 -46
137 -91 257 -101 266 -21 21 -70 31 -97 19z"/>
<path d="M6662 5670 c-49 -21 -53 -55 -50 -402 l3 -320 28 -24 c31 -27 81 -31
109 -10 34 26 38 64 38 386 0 316 0 319 -22 344 -26 29 -72 40 -106 26z"/>
<path d="M7924 5661 c-37 -23 -40 -28 -149 -306 -140 -354 -146 -373 -129
-406 17 -34 43 -49 82 -49 40 0 78 46 97 120 18 65 21 66 164 65 72 -1 132 -3
134 -6 1 -2 15 -35 31 -73 15 -39 37 -78 48 -88 27 -23 76 -23 106 0 49 38 43
63 -93 397 -70 174 -135 320 -148 332 -32 32 -103 39 -143 14z m111 -338 c19
-51 31 -93 27 -94 -8 -1 -162 -4 -162 -3 0 0 16 45 36 100 20 54 39 108 42
118 6 22 1 32 57 -121z"/>
<path d="M7002 5655 c-49 -21 -51 -38 -49 -380 l2 -317 27 -23 c27 -23 34 -24
190 -24 131 0 174 4 216 18 142 49 216 179 211 373 -4 178 -77 301 -203 344
-62 21 -350 27 -394 9z m330 -153 c30 -12 70 -70 82 -117 11 -43 8 -150 -5
-198 -29 -107 -80 -134 -246 -128 l-33 1 0 231 0 231 88 -5 c48 -2 99 -9 114
-15z"/>
<path d="M3654 4648 c1 -109 3 -123 19 -126 15 -3 17 8 17 122 0 115 -2 126
-18 126 -16 0 -18 -11 -18 -122z"/>
<path d="M5010 4644 c0 -114 2 -125 18 -122 15 3 17 17 17 126 1 111 -1 122
-17 122 -16 0 -18 -12 -18 -126z"/>
<path d="M5109 4725 c0 -25 0 -74 0 -110 0 -96 0 -95 16 -95 12 0 15 13 15 59
0 65 15 91 54 91 36 0 46 -20 46 -87 0 -55 2 -63 19 -63 17 0 19 7 16 71 -4
93 -21 113 -87 107 l-48 -5 0 38 c0 28 -4 39 -15 39 -11 0 -15 -12 -16 -45z"/>
<path d="M2480 4639 c0 -109 2 -120 18 -117 15 3 17 15 16 86 0 45 1 82 2 82
1 0 32 -38 69 -86 88 -113 99 -111 98 21 -1 137 -1 135 -18 135 -17 0 -18 -6
-16 -105 l1 -70 -22 26 c-13 14 -44 53 -70 87 -71 92 -78 86 -78 -59z"/>
<path d="M2950 4720 c0 -11 -7 -20 -15 -20 -19 0 -19 -17 0 -27 10 -6 15 -27
16 -66 1 -48 6 -61 26 -77 17 -13 31 -17 46 -11 30 11 28 36 -3 36 -23 0 -25
4 -28 58 -3 55 -2 57 23 57 16 0 25 6 25 15 0 9 -9 15 -25 15 -18 0 -25 5 -25
20 0 13 -7 20 -20 20 -13 0 -20 -7 -20 -20z"/>
<path d="M2783 4702 c-26 -4 -47 -27 -38 -42 4 -7 12 -7 25 0 31 16 68 12 80
-10 10 -18 8 -20 -24 -20 -73 0 -111 -41 -80 -87 13 -21 22 -23 79 -22 l65 2
0 66 c0 38 -5 75 -12 84 -15 20 -63 34 -95 29z m68 -124 c-10 -29 -68 -38 -78
-13 -8 22 13 35 54 35 29 0 32 -2 24 -22z"/>
<path d="M3095 4699 c-3 -8 -6 -30 -6 -49 -4 -111 12 -132 104 -128 l62 3 1
85 c0 96 -1 101 -21 93 -11 -4 -15 -21 -15 -63 0 -61 -16 -90 -48 -90 -35 0
-45 17 -47 80 -3 61 -19 98 -30 69z"/>
<path d="M4201 4699 c-63 -13 -92 -73 -63 -131 42 -84 172 -54 172 39 0 67
-46 106 -109 92z m63 -52 c22 -33 8 -79 -28 -92 -34 -12 -56 1 -69 39 -20 61
62 107 97 53z"/>
<path d="M4650 4698 c-19 -5 -39 -8 -45 -8 -5 1 -43 3 -82 5 l-73 3 0 -90 c0
-80 2 -89 17 -86 14 3 18 14 19 60 1 62 15 88 48 88 36 0 46 -20 46 -88 0 -55
2 -63 17 -60 14 3 18 15 19 60 1 63 15 88 48 88 36 0 46 -20 46 -88 0 -55 2
-63 18 -60 14 3 17 14 16 71 -2 92 -29 122 -94 105z"/>
<path d="M5398 4702 c-109 -14 -101 -182 9 -182 46 0 78 20 91 58 22 62 -35
133 -100 124z m56 -54 c21 -30 20 -54 -4 -78 -26 -26 -50 -25 -79 1 -17 16
-21 28 -16 48 12 52 71 69 99 29z"/>
<path d="M3319 4676 c-5 -115 -2 -151 14 -154 17 -4 19 4 19 73 0 40 14 64 44
75 40 16 27 30 -26 29 -44 -1 -50 -4 -51 -23z"/>
<path d="M3463 4690 c-15 -6 -21 -15 -17 -25 4 -10 12 -14 23 -9 34 14 62 16
76 4 24 -20 18 -27 -30 -32 -53 -6 -75 -22 -75 -53 0 -39 31 -56 96 -53 l59 3
1 55 c0 59 -10 100 -29 112 -16 10 -77 9 -104 -2z m97 -103 c0 -21 -22 -37
-51 -37 -30 0 -44 21 -26 39 16 16 77 14 77 -2z"/>
<path d="M3855 4675 c-51 -50 -21 -144 49 -157 33 -7 86 17 86 38 0 12 -5 14
-17 9 -53 -23 -103 -13 -103 21 0 9 16 13 53 12 87 -1 86 -1 81 30 -13 70 -99
98 -149 47z m99 -21 c9 -8 16 -17 16 -20 0 -2 -25 -4 -57 -4 -55 0 -56 0 -38
20 22 24 58 26 79 4z"/>
<path d="M4815 4675 c-51 -50 -21 -144 49 -157 33 -7 86 17 86 38 0 12 -5 14
-17 9 -53 -23 -103 -13 -103 21 0 9 15 13 53 12 87 -1 86 -1 81 30 -13 70 -99
98 -149 47z m99 -21 c9 -8 16 -17 16 -20 0 -2 -25 -4 -57 -4 -55 0 -56 0 -38
20 22 24 58 26 79 4z"/>
<path d="M5549 4673 c0 -13 -1 -36 -1 -53 0 -91 2 -100 20 -100 14 0 17 9 16
52 -2 62 8 86 42 98 40 16 27 29 -26 28 -45 -1 -50 -4 -51 -25z"/>
</g>
</svg>
